<svg width="96" height="27" viewBox="0 0 96 27" fill="none" xmlns="http://www.w3.org/2000/svg">
<path d="M3.54052e-05 26.28V1.08003H2.88004L12.06 14.832L21.24 1.08003H24.12V26.28H21.276V5.86803L12.096 19.368H11.952L2.77204 5.90403V26.28H3.54052e-05ZM28.6979 3.60003V0.540028H31.8659V3.60003H28.6979ZM28.8779 26.28V7.66803H31.6499V26.28H28.8779ZM35.923 26.28V7.66803H38.695V10.908C39.919 8.89203 41.863 7.27203 45.067 7.27203C49.567 7.27203 52.195 10.296 52.195 14.724V26.28H49.423V15.408C49.423 11.952 47.551 9.79203 44.275 9.79203C41.071 9.79203 38.695 12.132 38.695 15.624V26.28H35.923ZM63.7586 26.676C59.2946 26.676 54.8666 23.148 54.8666 17.028V16.956C54.8666 10.872 59.2946 7.27203 63.7586 7.27203C67.2146 7.27203 69.4466 9.14403 70.8866 11.232V2.86102e-05H73.6586V26.28H70.8866V22.536C69.3746 24.768 67.1786 26.676 63.7586 26.676ZM64.2626 24.192C67.7186 24.192 70.9946 21.276 70.9946 16.992V16.92C70.9946 12.636 67.7186 9.75603 64.2626 9.75603C60.6626 9.75603 57.7106 12.42 57.7106 16.92V16.992C57.7106 21.384 60.7346 24.192 64.2626 24.192ZM85.5768 26.712C81.5448 26.712 78.5928 25.272 76.1448 22.932L79.4928 18.936C81.4008 20.664 83.2728 21.672 85.5048 21.672C88.0968 21.672 89.7168 20.412 89.7168 18.18V18.108C89.7168 15.948 87.8808 14.688 85.2528 14.688C83.6688 14.688 82.2288 15.12 81.0408 15.624L77.8368 13.5L78.5568 1.08003H94.0368V5.94003H83.3088L83.0208 10.296C84.0288 10.044 84.9288 9.86403 86.3328 9.86403C91.2288 9.86403 95.1528 12.24 95.1528 17.928V18C95.1528 23.328 91.3728 26.712 85.5768 26.712Z" fill="#1F1F1F"/>
</svg>
